<?xml version="1.0" encoding="utf-8"?>
<!-- Generator: Adobe Illustrator 27.1.1, SVG Export Plug-In . SVG Version: 6.00 Build 0)  -->
<svg version="1.1" xmlns="http://www.w3.org/2000/svg" xmlns:xlink="http://www.w3.org/1999/xlink" x="0px" y="0px"
	 viewBox="0 0 683 366.4" style="enable-background:new 0 0 683 366.4;" xml:space="preserve">
<style type="text/css">
	.st0{fill:#FDFFFC;}
	.st1{fill:#171717;}
	.st2{fill:#F2FF49;}
	.st3{fill:#42CAFD;}
	.st4{fill:#FB62F6;}
	.st5{fill:url(#);}
</style>
<g id="Layer_1">
	<g>
		<circle class="st4" cx="480.8" cy="38.4" r="18"/>
		<circle class="st4" cx="202.2" cy="126.3" r="18"/>
		<g>
			<polygon class="st4" points="325.9,144.3 277.3,144.3 184.2,20.4 232.8,20.4 			"/>
			<path class="st4" d="M315.9,27.8l82,109.2h-30.2l-82-109.2H315.9 M319.6,20.4H271L364,144.3h48.6L319.6,20.4L319.6,20.4z"/>
			<polygon class="st4" points="498.8,144.3 450.2,144.3 357.1,20.4 405.7,20.4 			"/>
		</g>
		<g>
			<g>
				<g>
					<path class="st4" d="M49.9,182.6h20l2.7,35.5c0.8,10,0.9,20.4,0.9,20.4h0.1c0,0,3.2-9.6,7.3-18.6l17.3-37.3h20.7l-13.9,71.8
						H91.7l7.9-41.2c1.2-6.2,3.5-15.1,3.5-15.1H103c0,0-3.1,7.7-5.9,13.8l-19.8,42.5H63.6L60.2,212c-0.4-5.3-0.5-13.9-0.5-13.9h-0.2
						c0,0-1.2,9.2-2.3,15.1l-7.9,41.2H36.1L49.9,182.6z"/>
					<path class="st4" d="M135.4,182.6h50l-2.3,12.2h-35.7l-3.1,16.2h31.3l-2.3,11.9H142l-3.8,19.6h36.5l-2.3,12.1h-50.8
						L135.4,182.6z"/>
					<path class="st4" d="M236.3,245.6h-0.2c-4.7,6.5-11.9,10.3-20.7,10.3c-16.8,0-28.6-10.8-28.6-30.5c0-22.3,15.4-44.3,39.2-44.2
						c14.7,0.1,26.6,7.4,27.7,24h-14c-0.8-7.5-6.3-12.1-14.9-12.1c-15.3,0-23.4,16.1-23.4,32c0,12,5.5,19.1,17.1,19.1
						c10.3,0,18.1-6.6,19.8-16.9h-17l2.1-11.1h29.7l-7.3,38.2h-10.7L236.3,245.6z"/>
				</g>
				<g>
					<path class="st4" d="M288.2,182.6h14.6l2.1,35.7c0.4,6.7,0.3,15.9,0.3,15.9h0.2c0,0,3.3-8.9,6-15.8l14.3-35.8h13.6l1.7,35.7
						c0.3,6.4,0.4,15.9,0.4,15.9h0.2c0,0,3.6-9.4,6.3-16l14.9-35.6h14.2l-32.1,71.8h-13.4l-2.1-38.7c-0.3-5.7-0.3-13.3-0.3-13.3
						h-0.2c0,0-2.3,7.3-4.7,13.3l-15.6,38.7h-13.2L288.2,182.6z"/>
					<path class="st4" d="M398,226.3l-14.1-43.7h14.8l6.1,20.6c1.3,4.4,2.6,10.7,2.6,10.7h0.2c0,0,3.4-5.8,6.5-10.3l14.6-21h15.6
						l-32,44.1l-5.3,27.7h-14.4L398,226.3z"/>
					<path class="st4" d="M453.5,182.6h14.4l14.7,40.1c1.6,4.3,2.9,10.4,2.9,10.4h0.2c0,0,1.1-7.4,2.1-12.5l7.3-38.1h14l-13.9,71.8
						h-13.7l-15.4-40c-1.8-4.7-3-10-3-10H463c0,0-1.1,7.5-2.1,12.6l-7.2,37.5h-14L453.5,182.6z"/>
					<path class="st4" d="M525.2,182.6h14.4l14.7,40.1c1.6,4.3,2.9,10.4,2.9,10.4h0.2c0,0,1.1-7.4,2.1-12.5l7.3-38.1h14l-13.9,71.8
						h-13.7l-15.4-40c-1.8-4.7-3-10-3-10h-0.2c0,0-1.1,7.5-2.1,12.6l-7.2,37.5h-14L525.2,182.6z"/>
					<path class="st4" d="M596.9,182.6h50l-2.3,12.2H609l-3.1,16.2h31.3l-2.3,11.9h-31.3l-3.8,19.6h36.5l-2.3,12.1h-50.8
						L596.9,182.6z"/>
				</g>
			</g>
			<g>
				<path class="st4" d="M196.6,272.5h20l2.7,35.5c0.8,10,0.9,20.4,0.9,20.4h0.1c0,0,3.2-9.6,7.3-18.6l17.3-37.3h20.7l-13.9,71.8
					h-13.4l7.9-41.2c1.2-6.2,3.5-15.1,3.5-15.1h-0.2c0,0-3.1,7.7-5.9,13.8l-19.8,42.5h-13.7l-3.4-42.4c-0.4-5.3-0.5-13.9-0.5-13.9
					h-0.2c0,0-1.2,9.2-2.3,15.1l-7.9,41.2h-13.2L196.6,272.5z"/>
				<path class="st4" d="M272,319.1l9-46.6h14.4l-9.2,47.7c-1.7,8.5,1.5,13.8,11.6,13.8c9,0,13-5,14.4-12l9.5-49.5h14.3l-9.8,50.8
					c-2.8,14.3-12.2,22.2-28.6,22.2C279.7,345.5,268.6,337,272,319.1z"/>
				<path class="st4" d="M337.1,322.1h14c-0.5,9.1,6.2,12.2,15.6,12.2c7.1,0,13.8-2.7,13.8-9.3c0-5-3.4-7.2-15.6-11.7
					c-12.8-4.6-20.3-9-20.3-20.3c0-13.8,10.4-21.8,26.2-21.8c14.7,0,27.4,6.2,26.7,22.4h-13.8c0.3-7-4.5-10.9-13.5-10.9
					c-5.3,0-12,2-12.1,8.4c-0.1,4.8,3.2,6.2,14.6,10.1c14.3,4.9,21.9,10.3,21.9,21.8c0,15.2-12.1,22.9-28.4,22.9
					C349.6,345.9,336.2,338.7,337.1,322.1z"/>
				<path class="st4" d="M416.7,272.5h14.4l-13.9,71.8h-14.4L416.7,272.5z"/>
				<path class="st4" d="M435.5,315.3c0-21.9,14.1-44.2,38.4-44.2c14.6,0,25.5,7.3,26.4,24.2h-14.2c-0.7-8.1-5.1-12.1-13.4-12.1
					c-15.7,0-22.6,17-22.6,31.8c0,9.9,4,18.9,16.2,18.9c8.4,0,14.3-4.8,16.8-12.8h14.2c-2,7.5-5.6,14.1-11.2,18.4
					c-5.9,4.5-12.1,6.2-20.8,6.2C446.1,345.8,435.5,333,435.5,315.3z"/>
			</g>
		</g>
	</g>
</g>
<g id="Layer_2">
</g>
<g id="Layer_3">
</g>
</svg>
